<svg xmlns="http://www.w3.org/2000/svg" width="805" height="887" viewBox="0 0 805 887" version="1.1"><path d="M 522.500 17.850 C 521.400 18.207, 519.293 19.319, 517.818 20.320 C 516.343 21.321, 512.551 25.596, 509.391 29.820 C 506.232 34.044, 503.381 37.725, 503.056 38 C 502.731 38.275, 498.234 44.125, 493.063 51 C 487.892 57.875, 480.953 67.100, 477.644 71.500 C 474.334 75.900, 471.351 79.725, 471.015 80 C 470.679 80.275, 469.307 82.075, 467.966 84 C 466.625 85.925, 464.985 88.175, 464.320 89 C 463.655 89.825, 460.963 93.425, 458.337 97 C 455.710 100.575, 453.301 103.725, 452.983 104 C 452.664 104.275, 451.322 106.075, 450 108 C 448.678 109.925, 447.315 111.725, 446.970 112 C 446.626 112.275, 439.236 121.950, 430.549 133.500 C 421.861 145.050, 413.346 156.196, 411.627 158.270 C 409.907 160.343, 406.577 164.618, 404.228 167.770 C 401.878 170.921, 397.378 176.915, 394.228 181.089 C 391.077 185.262, 387.375 190.162, 386 191.978 C 384.625 193.793, 381.590 197.803, 379.255 200.889 C 376.920 203.975, 374.658 206.950, 374.228 207.500 C 373.797 208.050, 370.772 211.988, 367.504 216.250 C 364.237 220.513, 361.211 224, 360.781 224 C 360.352 224, 360 224.568, 360 225.262 C 360 225.956, 355.496 232.369, 349.992 239.512 C 344.487 246.655, 339.200 253.457, 338.242 254.628 C 337.284 255.798, 336.050 257.444, 335.500 258.285 C 334.950 259.127, 331.148 264.244, 327.050 269.658 C 322.953 275.071, 319.016 280.095, 318.300 280.821 C 317.585 281.548, 317 282.453, 317 282.832 C 317 283.210, 315.975 284.641, 314.722 286.010 C 313.468 287.380, 311.344 290.075, 310 292 C 308.656 293.925, 306.532 296.620, 305.278 297.990 C 303.659 299.759, 302.976 300.048, 302.919 298.990 C 302.874 298.170, 302.907 238.888, 302.993 167.250 C 303.126 56.132, 302.943 37, 301.748 37 C 300.977 37, 292.168 41.085, 282.173 46.077 L 264 55.154 264 175.442 L 264 295.730 288.329 319.615 C 301.710 332.752, 313.374 344.088, 314.250 344.807 C 315.582 345.900, 316.184 345.822, 317.922 344.335 C 319.065 343.356, 320.007 342.093, 320.016 341.528 C 320.025 340.962, 321.262 339.083, 322.766 337.352 C 324.270 335.621, 326.175 333.227, 327 332.033 C 327.825 330.839, 329.400 328.689, 330.500 327.256 C 331.600 325.823, 333.288 323.829, 334.250 322.825 C 335.213 321.821, 336 320.662, 336 320.250 C 336 319.837, 337.800 317.530, 340 315.123 C 342.200 312.716, 344 310.508, 344 310.214 C 344 309.921, 345.877 307.166, 348.171 304.091 C 350.465 301.016, 355.721 294.268, 359.852 289.096 C 363.983 283.924, 368.743 277.767, 370.431 275.412 C 372.119 273.058, 375.663 268.290, 378.306 264.816 C 380.949 261.342, 383.655 257.825, 384.320 257 C 384.985 256.175, 386.635 253.925, 387.987 252 C 389.339 250.075, 391.282 247.600, 392.305 246.500 C 393.328 245.400, 396.167 241.800, 398.615 238.500 C 401.063 235.200, 406.988 227.368, 411.783 221.096 C 416.577 214.824, 422.313 207.399, 424.530 204.596 C 426.746 201.793, 429.656 197.925, 430.997 196 C 432.337 194.075, 433.899 192.017, 434.467 191.427 C 435.035 190.837, 436.712 188.812, 438.193 186.927 C 439.674 185.042, 444.375 178.775, 448.638 173 C 452.902 167.225, 456.640 162.275, 456.945 162 C 457.250 161.725, 460.412 157.675, 463.972 153 C 467.531 148.325, 470.794 144.350, 471.222 144.167 C 471.650 143.983, 472 143.343, 472 142.744 C 472 142.145, 474.250 139.068, 477 135.907 C 479.750 132.745, 482 129.871, 482 129.520 C 482 129.170, 483.462 126.997, 485.250 124.691 C 487.038 122.386, 488.743 120.275, 489.040 120 C 489.337 119.725, 497.640 108.925, 507.490 96 C 517.341 83.075, 525.873 71.962, 526.450 71.304 C 527.028 70.647, 529.750 66.978, 532.500 63.151 C 535.250 59.325, 538.400 55.931, 539.500 55.611 C 540.600 55.290, 578.711 55.021, 624.191 55.014 C 669.671 55.006, 707.116 55.379, 707.402 55.841 C 707.688 56.304, 704.082 61.592, 699.390 67.591 C 694.697 73.591, 688.315 81.875, 685.207 86 C 682.099 90.125, 679.318 93.725, 679.028 94 C 678.738 94.275, 675.594 98.325, 672.042 103 C 668.491 107.675, 665.332 111.725, 665.024 112 C 664.716 112.275, 661.097 116.922, 656.982 122.326 C 652.867 127.731, 649.050 132.887, 648.500 133.786 C 647.950 134.684, 646.041 137.013, 644.259 138.960 C 642.476 140.907, 641.013 142.769, 641.009 143.097 C 641.004 143.425, 640.062 144.775, 638.915 146.097 C 637.768 147.419, 635.855 149.790, 634.665 151.367 C 633.474 152.944, 631.347 155.644, 629.937 157.367 C 628.527 159.090, 625.173 163.425, 622.484 167 C 619.794 170.575, 617.324 173.725, 616.995 174 C 616.666 174.275, 614.881 176.638, 613.029 179.250 C 611.177 181.863, 609.287 184, 608.830 184 C 608.374 184, 607.998 184.563, 607.995 185.250 C 607.993 185.938, 606.755 187.850, 605.245 189.500 C 603.735 191.150, 601.150 194.298, 599.500 196.496 C 597.850 198.694, 595.430 202.069, 594.123 203.996 C 592.816 205.923, 591.444 207.725, 591.075 208 C 590.706 208.275, 589.322 210.075, 588 212 C 586.678 213.925, 585.338 215.725, 585.022 216 C 584.707 216.275, 582.897 218.525, 581 221 C 579.103 223.475, 577.312 225.725, 577.020 226 C 576.728 226.275, 574.506 229.200, 572.083 232.500 C 569.660 235.800, 566.962 239.266, 566.088 240.202 C 565.215 241.138, 564.043 242.488, 563.485 243.202 C 562.927 243.916, 560.692 246.975, 558.518 250 C 556.344 253.025, 554.298 255.725, 553.969 256 C 553.641 256.275, 549.949 261, 545.765 266.500 C 541.581 272, 536.997 277.807, 535.579 279.406 C 534.160 281.004, 532.993 282.579, 532.984 282.906 C 532.975 283.232, 531.625 285.023, 529.984 286.886 C 528.343 288.748, 527 290.552, 527 290.896 C 527 291.239, 525.987 292.642, 524.750 294.013 C 523.513 295.383, 520.475 299.204, 518 302.502 C 515.525 305.801, 513.163 308.650, 512.750 308.833 C 512.337 309.017, 512 309.767, 512 310.500 C 512 311.233, 511.662 311.983, 511.249 312.167 C 510.835 312.350, 507.798 315.953, 504.499 320.174 C 501.199 324.395, 497.375 329.311, 496 331.100 C 494.625 332.889, 493.044 334.835, 492.487 335.426 C 491.930 336.017, 490.615 337.850, 489.566 339.500 C 488.516 341.150, 486.626 343.625, 485.367 345 C 484.107 346.375, 482.272 348.498, 481.288 349.717 C 480.305 350.937, 478.176 353.749, 476.558 355.967 C 474.940 358.185, 473.253 360, 472.808 360 C 472.364 360, 471.984 360.563, 471.964 361.250 C 471.944 361.938, 469.806 365.238, 467.214 368.585 C 464.621 371.931, 459.596 378.456, 456.047 383.085 C 452.498 387.713, 449.235 391.650, 448.797 391.833 C 448.359 392.017, 448 392.583, 448 393.092 C 448 393.601, 446.801 395.363, 445.335 397.009 C 443.869 398.654, 442.125 400, 441.460 400 C 440.794 400, 439.991 401.296, 439.674 402.879 C 439.357 404.463, 438.484 406.376, 437.734 407.129 C 436.984 407.883, 435.950 409.234, 435.435 410.131 C 434.921 411.029, 432.925 413.708, 431 416.086 C 429.075 418.463, 426.712 421.217, 425.750 422.204 C 424.788 423.192, 424 424.275, 424 424.611 C 424 424.947, 422.283 427.310, 420.185 429.861 C 418.087 432.413, 415.323 436.009, 414.043 437.853 C 412.580 439.962, 412.104 441.447, 412.759 441.853 C 413.332 442.209, 419.030 447.563, 425.421 453.750 C 431.811 459.937, 437.620 465, 438.328 465 C 439.036 465, 441.042 462.975, 442.787 460.500 C 444.531 458.025, 446.418 456, 446.979 456 C 447.541 456, 448 455.531, 448 454.957 C 448 454.384, 449.881 451.346, 452.180 448.207 C 454.479 445.068, 456.619 442.275, 456.936 442 C 457.252 441.725, 458.695 439.925, 460.142 438 C 461.589 436.075, 463.724 433.419, 464.887 432.097 C 466.049 430.775, 467.009 429.425, 467.019 429.097 C 467.030 428.769, 468.624 426.700, 470.561 424.500 C 472.498 422.300, 475.961 418.025, 478.256 415 C 480.551 411.975, 483.233 408.695, 484.215 407.711 C 485.197 406.727, 486 405.598, 486 405.201 C 486 404.804, 487.013 403.359, 488.251 401.990 C 489.490 400.620, 493.152 396.012, 496.390 391.750 C 499.628 387.487, 502.665 384, 503.139 384 C 503.612 384, 504 383.425, 504 382.723 C 504 382.020, 505.350 379.968, 507 378.161 C 508.650 376.355, 510.002 374.567, 510.005 374.188 C 510.007 373.810, 511.273 372.150, 512.818 370.500 C 514.362 368.850, 516.048 366.773, 516.563 365.885 C 517.078 364.997, 518.850 362.573, 520.500 360.499 C 522.150 358.424, 525.658 353.976, 528.296 350.613 C 530.934 347.251, 533.634 343.815, 534.296 342.977 C 534.958 342.139, 537.518 338.764, 539.983 335.477 C 542.449 332.190, 545.233 328.600, 546.170 327.500 C 547.106 326.400, 548.914 324.276, 550.186 322.780 C 551.459 321.285, 553.824 318.247, 555.442 316.030 C 557.060 313.814, 558.747 312, 559.192 312 C 559.636 312, 560 311.502, 560 310.894 C 560 310.286, 561.462 307.925, 563.250 305.647 C 565.038 303.370, 567.175 300.667, 568 299.642 C 568.825 298.616, 569.979 297.265, 570.565 296.638 C 571.150 296.012, 572.050 294.773, 572.565 293.885 C 573.079 292.997, 574.850 290.573, 576.500 288.499 C 578.150 286.424, 581.663 281.976, 584.307 278.613 C 586.950 275.251, 589.976 271.405, 591.030 270.066 C 592.084 268.727, 595.546 264.286, 598.723 260.196 C 601.901 256.106, 608.226 247.977, 612.780 242.130 C 617.334 236.284, 621.609 230.816, 622.280 229.980 C 622.951 229.145, 625.495 225.770, 627.933 222.480 C 630.371 219.191, 632.643 216.275, 632.981 216 C 633.320 215.725, 634.687 213.925, 636.021 212 C 637.355 210.075, 639.279 207.600, 640.297 206.500 C 641.315 205.400, 645.377 200.228, 649.324 195.006 C 653.271 189.784, 661.582 178.984, 667.792 171.006 C 674.003 163.028, 679.632 155.825, 680.301 155 C 680.970 154.175, 684.439 149.675, 688.009 145 C 691.579 140.325, 694.950 135.988, 695.500 135.363 C 696.050 134.737, 700.075 129.562, 704.444 123.863 C 708.813 118.163, 716.263 108.550, 720.999 102.500 C 725.736 96.450, 734.298 85.425, 740.028 78 C 745.757 70.575, 750.704 64.275, 751.020 64 C 751.337 63.725, 752.693 61.925, 754.034 60 C 755.375 58.075, 757.153 55.645, 757.986 54.600 C 758.819 53.555, 760.269 51.886, 761.209 50.891 C 762.148 49.897, 763.836 47.282, 764.959 45.081 C 766.221 42.607, 767 39.141, 767 36 C 767 32.988, 766.229 29.410, 765.106 27.210 C 764.065 25.170, 762.377 22.767, 761.356 21.871 C 760.335 20.974, 758.060 19.512, 756.300 18.621 C 753.401 17.153, 742.321 17.009, 638.800 17.100 C 575.935 17.155, 523.600 17.492, 522.500 17.850 M 51.132 149.750 C 49.538 151.262, 47.506 154.422, 46.617 156.770 C 45.159 160.620, 45 173.377, 45 286.389 L 45 411.738 50.750 417.295 C 53.912 420.351, 58.781 425.023, 61.568 427.676 C 64.356 430.329, 74.006 439.475, 83.012 448 C 92.019 456.525, 103.914 467.926, 109.444 473.336 C 114.975 478.746, 120.015 483.471, 120.644 483.836 C 121.273 484.201, 127.177 489.675, 133.764 496 C 140.351 502.325, 153.323 514.700, 162.590 523.500 C 171.857 532.300, 183.953 543.835, 189.470 549.133 C 194.986 554.431, 203.536 562.643, 208.469 567.383 C 213.401 572.122, 217.537 576, 217.660 576 C 217.782 576, 219.850 577.913, 222.256 580.250 C 224.661 582.587, 232.848 590.350, 240.450 597.500 C 248.052 604.650, 257.023 613.126, 260.386 616.336 C 263.748 619.546, 272.559 627.871, 279.964 634.836 C 287.370 641.801, 295.590 649.573, 298.231 652.107 C 300.872 654.641, 310.338 663.680, 319.266 672.193 C 328.195 680.707, 339.270 691.234, 343.877 695.586 C 348.484 699.939, 357.934 709.012, 364.877 715.749 C 371.820 722.486, 377.676 727.998, 377.891 727.999 C 378.106 727.999, 380.192 729.912, 382.526 732.250 C 384.860 734.587, 391.152 740.550, 396.509 745.500 C 401.865 750.450, 408.829 756.975, 411.984 760 C 415.139 763.025, 423.237 770.675, 429.980 777 C 436.722 783.325, 445.759 791.875, 450.061 796 C 454.364 800.125, 464.747 810.025, 473.135 818 C 481.524 825.975, 491.526 835.425, 495.362 839 C 499.199 842.575, 505.974 848.988, 510.419 853.251 C 514.864 857.515, 519.400 861.288, 520.500 861.636 C 521.600 861.984, 522.750 862.656, 523.056 863.129 C 523.361 863.602, 575.246 864.001, 638.355 864.017 C 739.790 864.042, 753.275 863.868, 754.620 862.522 C 755.458 861.685, 756.480 861, 756.891 861 C 757.303 861, 759 859.762, 760.663 858.250 C 762.326 856.737, 764.207 853.970, 764.843 852.101 C 765.479 850.231, 765.986 846.856, 765.969 844.601 C 765.950 842.157, 765.041 839.050, 763.719 836.911 C 762.498 834.937, 743.121 815.137, 720.658 792.911 C 698.195 770.685, 654.320 727.191, 623.158 696.257 C 591.996 665.323, 566.275 639.990, 566 639.960 C 565.725 639.931, 564.150 638.149, 562.500 636 C 560.850 633.851, 559.209 632.072, 558.853 632.046 C 558.497 632.021, 556.809 630.775, 555.103 629.277 C 553.396 627.780, 552 625.980, 552 625.277 C 552 624.575, 551.533 624, 550.963 624 C 550.392 624, 536.105 610.322, 519.213 593.604 C 502.321 576.887, 478.825 553.677, 467 542.027 C 455.175 530.378, 437.063 512.491, 426.750 502.278 C 416.437 492.066, 408 483.326, 408 482.855 C 408 482.385, 407.628 482, 407.172 482 C 406.717 482, 397.296 473.113, 386.236 462.250 C 375.176 451.387, 341.998 418.650, 312.506 389.500 C 283.014 360.350, 251.288 329.075, 242.004 320 C 232.719 310.925, 194.607 273.300, 157.311 236.389 C 120.015 199.478, 86.075 165.953, 81.889 161.889 C 77.703 157.825, 71.413 152.813, 67.912 150.750 C 63.603 148.212, 60.331 147, 57.789 147 C 55.060 147, 53.238 147.752, 51.132 149.750 M 45.357 653.197 C 45.874 800.582, 46.329 848.371, 47.248 851.447 C 47.914 853.676, 49.755 856.594, 51.339 857.932 C 52.924 859.269, 54.733 860.869, 55.360 861.488 C 55.987 862.106, 57.342 862.931, 58.371 863.321 C 59.399 863.711, 111.272 864.020, 173.644 864.009 L 287.047 863.987 291.411 861.744 C 293.812 860.510, 296.739 858.104, 297.915 856.398 C 299.092 854.692, 300.477 851.825, 300.993 850.025 C 301.528 848.158, 301.961 820.086, 302.001 784.627 C 302.040 750.457, 302.056 717.965, 302.036 712.422 L 302 702.344 296.250 696.761 C 293.088 693.691, 286.027 686.863, 280.560 681.589 C 275.093 676.315, 270.364 672, 270.050 672 C 269.737 672, 268.919 671.100, 268.232 670 C 267.545 668.900, 266.253 668, 265.361 668 C 263.875 668, 263.786 674.454, 264.301 745.405 C 264.610 787.977, 264.615 823.755, 264.313 824.910 L 263.764 827.011 173.356 826.755 L 82.948 826.500 82.950 715.500 C 82.951 654.450, 83.218 579.825, 83.545 549.666 L 84.138 494.831 76.276 487.166 C 71.951 482.950, 63.636 474.887, 57.796 469.250 C 51.956 463.613, 46.616 459, 45.928 459 C 44.929 459, 44.814 498.082, 45.357 653.197" stroke="none" fill="#faa741" fill-rule="evenodd"/><path d="M 0 443.501 L 0 887.002 402.750 886.751 L 805.500 886.500 805.751 443.250 L 806.002 0 403.001 0 L 0 0 0 443.501 M 0.496 444 C 0.496 687.925, 0.610 787.713, 0.750 665.750 C 0.890 543.788, 0.890 344.213, 0.750 222.250 C 0.610 100.288, 0.496 200.075, 0.496 444 M 522.500 17.850 C 521.400 18.207, 519.293 19.319, 517.818 20.320 C 516.343 21.321, 512.551 25.596, 509.391 29.820 C 506.232 34.044, 503.381 37.725, 503.056 38 C 502.731 38.275, 498.234 44.125, 493.063 51 C 487.892 57.875, 480.953 67.100, 477.644 71.500 C 474.334 75.900, 471.351 79.725, 471.015 80 C 470.679 80.275, 469.307 82.075, 467.966 84 C 466.625 85.925, 464.985 88.175, 464.320 89 C 463.655 89.825, 460.963 93.425, 458.337 97 C 455.710 100.575, 453.301 103.725, 452.983 104 C 452.664 104.275, 451.322 106.075, 450 108 C 448.678 109.925, 447.315 111.725, 446.970 112 C 446.626 112.275, 439.236 121.950, 430.549 133.500 C 421.861 145.050, 413.346 156.196, 411.627 158.270 C 409.907 160.343, 406.577 164.618, 404.228 167.770 C 401.878 170.921, 397.378 176.915, 394.228 181.089 C 391.077 185.262, 387.375 190.162, 386 191.978 C 384.625 193.793, 381.590 197.803, 379.255 200.889 C 376.920 203.975, 374.658 206.950, 374.228 207.500 C 373.797 208.050, 370.772 211.988, 367.504 216.250 C 364.237 220.513, 361.211 224, 360.781 224 C 360.352 224, 360 224.568, 360 225.262 C 360 225.956, 355.496 232.369, 349.992 239.512 C 344.487 246.655, 339.200 253.457, 338.242 254.628 C 337.284 255.798, 336.050 257.444, 335.500 258.285 C 334.950 259.127, 331.148 264.244, 327.050 269.658 C 322.953 275.071, 319.016 280.095, 318.300 280.821 C 317.585 281.548, 317 282.453, 317 282.832 C 317 283.210, 315.975 284.641, 314.722 286.010 C 313.468 287.380, 311.344 290.075, 310 292 C 308.656 293.925, 306.532 296.620, 305.278 297.990 C 303.659 299.759, 302.976 300.048, 302.919 298.990 C 302.874 298.170, 302.907 238.888, 302.993 167.250 C 303.126 56.132, 302.943 37, 301.748 37 C 300.977 37, 292.168 41.085, 282.173 46.077 L 264 55.154 264 175.442 L 264 295.730 288.329 319.615 C 301.710 332.752, 313.374 344.088, 314.250 344.807 C 315.582 345.900, 316.184 345.822, 317.922 344.335 C 319.065 343.356, 320.007 342.093, 320.016 341.528 C 320.025 340.962, 321.262 339.083, 322.766 337.352 C 324.270 335.621, 326.175 333.227, 327 332.033 C 327.825 330.839, 329.400 328.689, 330.500 327.256 C 331.600 325.823, 333.288 323.829, 334.250 322.825 C 335.213 321.821, 336 320.662, 336 320.250 C 336 319.837, 337.800 317.530, 340 315.123 C 342.200 312.716, 344 310.508, 344 310.214 C 344 309.921, 345.877 307.166, 348.171 304.091 C 350.465 301.016, 355.721 294.268, 359.852 289.096 C 363.983 283.924, 368.743 277.767, 370.431 275.412 C 372.119 273.058, 375.663 268.290, 378.306 264.816 C 380.949 261.342, 383.655 257.825, 384.320 257 C 384.985 256.175, 386.635 253.925, 387.987 252 C 389.339 250.075, 391.282 247.600, 392.305 246.500 C 393.328 245.400, 396.167 241.800, 398.615 238.500 C 401.063 235.200, 406.988 227.368, 411.783 221.096 C 416.577 214.824, 422.313 207.399, 424.530 204.596 C 426.746 201.793, 429.656 197.925, 430.997 196 C 432.337 194.075, 433.899 192.017, 434.467 191.427 C 435.035 190.837, 436.712 188.812, 438.193 186.927 C 439.674 185.042, 444.375 178.775, 448.638 173 C 452.902 167.225, 456.640 162.275, 456.945 162 C 457.250 161.725, 460.412 157.675, 463.972 153 C 467.531 148.325, 470.794 144.350, 471.222 144.167 C 471.650 143.983, 472 143.343, 472 142.744 C 472 142.145, 474.250 139.068, 477 135.907 C 479.750 132.745, 482 129.871, 482 129.520 C 482 129.170, 483.462 126.997, 485.250 124.691 C 487.038 122.386, 488.743 120.275, 489.040 120 C 489.337 119.725, 497.640 108.925, 507.490 96 C 517.341 83.075, 525.873 71.962, 526.450 71.304 C 527.028 70.647, 529.750 66.978, 532.500 63.151 C 535.250 59.325, 538.400 55.931, 539.500 55.611 C 540.600 55.290, 578.711 55.021, 624.191 55.014 C 669.671 55.006, 707.116 55.379, 707.402 55.841 C 707.688 56.304, 704.082 61.592, 699.390 67.591 C 694.697 73.591, 688.315 81.875, 685.207 86 C 682.099 90.125, 679.318 93.725, 679.028 94 C 678.738 94.275, 675.594 98.325, 672.042 103 C 668.491 107.675, 665.332 111.725, 665.024 112 C 664.716 112.275, 661.097 116.922, 656.982 122.326 C 652.867 127.731, 649.050 132.887, 648.500 133.786 C 647.950 134.684, 646.041 137.013, 644.259 138.960 C 642.476 140.907, 641.013 142.769, 641.009 143.097 C 641.004 143.425, 640.062 144.775, 638.915 146.097 C 637.768 147.419, 635.855 149.790, 634.665 151.367 C 633.474 152.944, 631.347 155.644, 629.937 157.367 C 628.527 159.090, 625.173 163.425, 622.484 167 C 619.794 170.575, 617.324 173.725, 616.995 174 C 616.666 174.275, 614.881 176.638, 613.029 179.250 C 611.177 181.863, 609.287 184, 608.830 184 C 608.374 184, 607.998 184.563, 607.995 185.250 C 607.993 185.938, 606.755 187.850, 605.245 189.500 C 603.735 191.150, 601.150 194.298, 599.500 196.496 C 597.850 198.694, 595.430 202.069, 594.123 203.996 C 592.816 205.923, 591.444 207.725, 591.075 208 C 590.706 208.275, 589.322 210.075, 588 212 C 586.678 213.925, 585.338 215.725, 585.022 216 C 584.707 216.275, 582.897 218.525, 581 221 C 579.103 223.475, 577.312 225.725, 577.020 226 C 576.728 226.275, 574.506 229.200, 572.083 232.500 C 569.660 235.800, 566.962 239.266, 566.088 240.202 C 565.215 241.138, 564.043 242.488, 563.485 243.202 C 562.927 243.916, 560.692 246.975, 558.518 250 C 556.344 253.025, 554.298 255.725, 553.969 256 C 553.641 256.275, 549.949 261, 545.765 266.500 C 541.581 272, 536.997 277.807, 535.579 279.406 C 534.160 281.004, 532.993 282.579, 532.984 282.906 C 532.975 283.232, 531.625 285.023, 529.984 286.886 C 528.343 288.748, 527 290.552, 527 290.896 C 527 291.239, 525.987 292.642, 524.750 294.013 C 523.513 295.383, 520.475 299.204, 518 302.502 C 515.525 305.801, 513.163 308.650, 512.750 308.833 C 512.337 309.017, 512 309.767, 512 310.500 C 512 311.233, 511.662 311.983, 511.249 312.167 C 510.835 312.350, 507.798 315.953, 504.499 320.174 C 501.199 324.395, 497.375 329.311, 496 331.100 C 494.625 332.889, 493.044 334.835, 492.487 335.426 C 491.930 336.017, 490.615 337.850, 489.566 339.500 C 488.516 341.150, 486.626 343.625, 485.367 345 C 484.107 346.375, 482.272 348.498, 481.288 349.717 C 480.305 350.937, 478.176 353.749, 476.558 355.967 C 474.940 358.185, 473.253 360, 472.808 360 C 472.364 360, 471.984 360.563, 471.964 361.250 C 471.944 361.938, 469.806 365.238, 467.214 368.585 C 464.621 371.931, 459.596 378.456, 456.047 383.085 C 452.498 387.713, 449.235 391.650, 448.797 391.833 C 448.359 392.017, 448 392.583, 448 393.092 C 448 393.601, 446.801 395.363, 445.335 397.009 C 443.869 398.654, 442.125 400, 441.460 400 C 440.794 400, 439.991 401.296, 439.674 402.879 C 439.357 404.463, 438.484 406.376, 437.734 407.129 C 436.984 407.883, 435.950 409.234, 435.435 410.131 C 434.921 411.029, 432.925 413.708, 431 416.086 C 429.075 418.463, 426.712 421.217, 425.750 422.204 C 424.788 423.192, 424 424.275, 424 424.611 C 424 424.947, 422.283 427.310, 420.185 429.861 C 418.087 432.413, 415.323 436.009, 414.043 437.853 C 412.580 439.962, 412.104 441.447, 412.759 441.853 C 413.332 442.209, 419.030 447.563, 425.421 453.750 C 431.811 459.937, 437.620 465, 438.328 465 C 439.036 465, 441.042 462.975, 442.787 460.500 C 444.531 458.025, 446.418 456, 446.979 456 C 447.541 456, 448 455.531, 448 454.957 C 448 454.384, 449.881 451.346, 452.180 448.207 C 454.479 445.068, 456.619 442.275, 456.936 442 C 457.252 441.725, 458.695 439.925, 460.142 438 C 461.589 436.075, 463.724 433.419, 464.887 432.097 C 466.049 430.775, 467.009 429.425, 467.019 429.097 C 467.030 428.769, 468.624 426.700, 470.561 424.500 C 472.498 422.300, 475.961 418.025, 478.256 415 C 480.551 411.975, 483.233 408.695, 484.215 407.711 C 485.197 406.727, 486 405.598, 486 405.201 C 486 404.804, 487.013 403.359, 488.251 401.990 C 489.490 400.620, 493.152 396.012, 496.390 391.750 C 499.628 387.487, 502.665 384, 503.139 384 C 503.612 384, 504 383.425, 504 382.723 C 504 382.020, 505.350 379.968, 507 378.161 C 508.650 376.355, 510.002 374.567, 510.005 374.188 C 510.007 373.810, 511.273 372.150, 512.818 370.500 C 514.362 368.850, 516.048 366.773, 516.563 365.885 C 517.078 364.997, 518.850 362.573, 520.500 360.499 C 522.150 358.424, 525.658 353.976, 528.296 350.613 C 530.934 347.251, 533.634 343.815, 534.296 342.977 C 534.958 342.139, 537.518 338.764, 539.983 335.477 C 542.449 332.190, 545.233 328.600, 546.170 327.500 C 547.106 326.400, 548.914 324.276, 550.186 322.780 C 551.459 321.285, 553.824 318.247, 555.442 316.030 C 557.060 313.814, 558.747 312, 559.192 312 C 559.636 312, 560 311.502, 560 310.894 C 560 310.286, 561.462 307.925, 563.250 305.647 C 565.038 303.370, 567.175 300.667, 568 299.642 C 568.825 298.616, 569.979 297.265, 570.565 296.638 C 571.150 296.012, 572.050 294.773, 572.565 293.885 C 573.079 292.997, 574.850 290.573, 576.500 288.499 C 578.150 286.424, 581.663 281.976, 584.307 278.613 C 586.950 275.251, 589.976 271.405, 591.030 270.066 C 592.084 268.727, 595.546 264.286, 598.723 260.196 C 601.901 256.106, 608.226 247.977, 612.780 242.130 C 617.334 236.284, 621.609 230.816, 622.280 229.980 C 622.951 229.145, 625.495 225.770, 627.933 222.480 C 630.371 219.191, 632.643 216.275, 632.981 216 C 633.320 215.725, 634.687 213.925, 636.021 212 C 637.355 210.075, 639.279 207.600, 640.297 206.500 C 641.315 205.400, 645.377 200.228, 649.324 195.006 C 653.271 189.784, 661.582 178.984, 667.792 171.006 C 674.003 163.028, 679.632 155.825, 680.301 155 C 680.970 154.175, 684.439 149.675, 688.009 145 C 691.579 140.325, 694.950 135.988, 695.500 135.363 C 696.050 134.737, 700.075 129.562, 704.444 123.863 C 708.813 118.163, 716.263 108.550, 720.999 102.500 C 725.736 96.450, 734.298 85.425, 740.028 78 C 745.757 70.575, 750.704 64.275, 751.020 64 C 751.337 63.725, 752.693 61.925, 754.034 60 C 755.375 58.075, 757.153 55.645, 757.986 54.600 C 758.819 53.555, 760.269 51.886, 761.209 50.891 C 762.148 49.897, 763.836 47.282, 764.959 45.081 C 766.221 42.607, 767 39.141, 767 36 C 767 32.988, 766.229 29.410, 765.106 27.210 C 764.065 25.170, 762.377 22.767, 761.356 21.871 C 760.335 20.974, 758.060 19.512, 756.300 18.621 C 753.401 17.153, 742.321 17.009, 638.800 17.100 C 575.935 17.155, 523.600 17.492, 522.500 17.850 M 51.132 149.750 C 49.538 151.262, 47.506 154.422, 46.617 156.770 C 45.159 160.620, 45 173.377, 45 286.389 L 45 411.738 50.750 417.295 C 53.912 420.351, 58.781 425.023, 61.568 427.676 C 64.356 430.329, 74.006 439.475, 83.012 448 C 92.019 456.525, 103.914 467.926, 109.444 473.336 C 114.975 478.746, 120.015 483.471, 120.644 483.836 C 121.273 484.201, 127.177 489.675, 133.764 496 C 140.351 502.325, 153.323 514.700, 162.590 523.500 C 171.857 532.300, 183.953 543.835, 189.470 549.133 C 194.986 554.431, 203.536 562.643, 208.469 567.383 C 213.401 572.122, 217.537 576, 217.660 576 C 217.782 576, 219.850 577.913, 222.256 580.250 C 224.661 582.587, 232.848 590.350, 240.450 597.500 C 248.052 604.650, 257.023 613.126, 260.386 616.336 C 263.748 619.546, 272.559 627.871, 279.964 634.836 C 287.370 641.801, 295.590 649.573, 298.231 652.107 C 300.872 654.641, 310.338 663.680, 319.266 672.193 C 328.195 680.707, 339.270 691.234, 343.877 695.586 C 348.484 699.939, 357.934 709.012, 364.877 715.749 C 371.820 722.486, 377.676 727.998, 377.891 727.999 C 378.106 727.999, 380.192 729.912, 382.526 732.250 C 384.860 734.587, 391.152 740.550, 396.509 745.500 C 401.865 750.450, 408.829 756.975, 411.984 760 C 415.139 763.025, 423.237 770.675, 429.980 777 C 436.722 783.325, 445.759 791.875, 450.061 796 C 454.364 800.125, 464.747 810.025, 473.135 818 C 481.524 825.975, 491.526 835.425, 495.362 839 C 499.199 842.575, 505.974 848.988, 510.419 853.251 C 514.864 857.515, 519.400 861.288, 520.500 861.636 C 521.600 861.984, 522.750 862.656, 523.056 863.129 C 523.361 863.602, 575.246 864.001, 638.355 864.017 C 739.790 864.042, 753.275 863.868, 754.620 862.522 C 755.458 861.685, 756.480 861, 756.891 861 C 757.303 861, 759 859.762, 760.663 858.250 C 762.326 856.737, 764.207 853.970, 764.843 852.101 C 765.479 850.231, 765.986 846.856, 765.969 844.601 C 765.950 842.157, 765.041 839.050, 763.719 836.911 C 762.498 834.937, 743.121 815.137, 720.658 792.911 C 698.195 770.685, 654.320 727.191, 623.158 696.257 C 591.996 665.323, 566.275 639.990, 566 639.960 C 565.725 639.931, 564.150 638.149, 562.500 636 C 560.850 633.851, 559.209 632.072, 558.853 632.046 C 558.497 632.021, 556.809 630.775, 555.103 629.277 C 553.396 627.780, 552 625.980, 552 625.277 C 552 624.575, 551.533 624, 550.963 624 C 550.392 624, 536.105 610.322, 519.213 593.604 C 502.321 576.887, 478.825 553.677, 467 542.027 C 455.175 530.378, 437.063 512.491, 426.750 502.278 C 416.437 492.066, 408 483.326, 408 482.855 C 408 482.385, 407.628 482, 407.172 482 C 406.717 482, 397.296 473.113, 386.236 462.250 C 375.176 451.387, 341.998 418.650, 312.506 389.500 C 283.014 360.350, 251.288 329.075, 242.004 320 C 232.719 310.925, 194.607 273.300, 157.311 236.389 C 120.015 199.478, 86.075 165.953, 81.889 161.889 C 77.703 157.825, 71.413 152.813, 67.912 150.750 C 63.603 148.212, 60.331 147, 57.789 147 C 55.060 147, 53.238 147.752, 51.132 149.750 M 45.357 653.197 C 45.874 800.582, 46.329 848.371, 47.248 851.447 C 47.914 853.676, 49.755 856.594, 51.339 857.932 C 52.924 859.269, 54.733 860.869, 55.360 861.488 C 55.987 862.106, 57.342 862.931, 58.371 863.321 C 59.399 863.711, 111.272 864.020, 173.644 864.009 L 287.047 863.987 291.411 861.744 C 293.812 860.510, 296.739 858.104, 297.915 856.398 C 299.092 854.692, 300.477 851.825, 300.993 850.025 C 301.528 848.158, 301.961 820.086, 302.001 784.627 C 302.040 750.457, 302.056 717.965, 302.036 712.422 L 302 702.344 296.250 696.761 C 293.088 693.691, 286.027 686.863, 280.560 681.589 C 275.093 676.315, 270.364 672, 270.050 672 C 269.737 672, 268.919 671.100, 268.232 670 C 267.545 668.900, 266.253 668, 265.361 668 C 263.875 668, 263.786 674.454, 264.301 745.405 C 264.610 787.977, 264.615 823.755, 264.313 824.910 L 263.764 827.011 173.356 826.755 L 82.948 826.500 82.950 715.500 C 82.951 654.450, 83.218 579.825, 83.545 549.666 L 84.138 494.831 76.276 487.166 C 71.951 482.950, 63.636 474.887, 57.796 469.250 C 51.956 463.613, 46.616 459, 45.928 459 C 44.929 459, 44.814 498.082, 45.357 653.197" stroke="none" fill="#faf9f8" fill-rule="evenodd"/></svg>